<svg id="brain-outline" xmlns="http://www.w3.org/2000/svg" width="134" height="134" viewBox="0 0 134 134">
  <rect id="Rectangle_4" data-name="Rectangle 4" width="134" height="134" transform="translate(0 0)" fill="none"/>
  <g id="Group_12" data-name="Group 12" transform="translate(4.938 21.406)">
    <path id="Union_13" data-name="Union 13" d="M74.2,88.278a20.9,20.9,0,0,1-7.5-7.706q-1.206.245-2.44.374a25.888,25.888,0,0,1-2.736.145c-.43,0-.854,0-1.284-.033a26.607,26.607,0,0,1-8.476-1.673,21.406,21.406,0,0,1-7.544-4.862q-.251-.251-.5-.519a25.811,25.811,0,0,1-2.5-2.71A28.91,28.91,0,1,1,23.69,16.709a20.851,20.851,0,0,1,3.021-5.5,21.083,21.083,0,0,1,4.467-4.321A20.852,20.852,0,0,1,54.6,6.41,20.84,20.84,0,0,1,86.883,9.148a25.885,25.885,0,0,1,24.569,21.959,25.5,25.5,0,0,1,2.63,1.829l.145.112.05.039a26,26,0,0,1,4.316,4.416l.061.084.073.1a25.382,25.382,0,0,1,2.423,3.9l.073.145v.045a25.633,25.633,0,0,1,1.273,2.81v.078l.034.1a25.617,25.617,0,0,1,1.39,7.556s0,0,0,.039v.82h0v1.823a2.242,2.242,0,0,1-.028.39v.875a25.651,25.651,0,0,1-.558,3.19v.078l-.039.162-.039.151-.028.112-.061.223a.212.212,0,0,1,0,.05q-.235.836-.525,1.673a25.9,25.9,0,0,1-1.3,3.017l-.067.128-.034.067a25.9,25.9,0,0,1-16.936,13.243A20.829,20.829,0,0,1,74.37,88.295Zm.592-3.234a17.785,17.785,0,0,0,25.68-6.1c-.793.072-1.591.112-2.4.112a26.241,26.241,0,0,1-5.26-.558c-.871-.257-1.753-.931-1.631-1.823.084-.558.637-1.115,1.954-1.115a4.936,4.936,0,0,1,.514.028,23.228,23.228,0,0,0,8.2.117h0a22.858,22.858,0,0,0,11.067-5.163l.073-.061.045-.039q.614-.558,1.189-1.115a22.711,22.711,0,0,0,1.8-2.024l.039-.045.045-.061a22.73,22.73,0,0,0,3.35-5.961q.168-.441.313-.887l.045-.123V60.18a23.026,23.026,0,0,0,.743-10.951v-.206a22.693,22.693,0,0,0-3.015-7.807,23.024,23.024,0,0,0-1.843-2.565q-.681-.82-1.452-1.584a22.781,22.781,0,0,0-2.323-2.03h0l-.162-.123a22.775,22.775,0,0,0-3.077-1.929h0l-.2-.106h-.028c-.318-.162-.648-.323-.977-.468l.039-.162a3.394,3.394,0,0,0-3.535,0,23.65,23.65,0,0,0-4.841,5.76,9.681,9.681,0,0,1-5.718,4.221,9.641,9.641,0,0,1-16,5.983,1.961,1.961,0,0,1-.279-1.952,1.151,1.151,0,0,1,1.067-.558,3.2,3.2,0,0,1,1.424.407,6.6,6.6,0,0,0,10.609-3.58,9.658,9.658,0,0,1-8.968-9.613c0-.229,0-.457,0-.708.2-1.21.96-1.645,1.552-1.645a1.607,1.607,0,0,1,1.508,1.595,6.68,6.68,0,0,0-.045.758,6.6,6.6,0,0,0,12.4,3.156,13.973,13.973,0,0,1,5.388-6.323,8.151,8.151,0,0,1,5.779-.82,22.839,22.839,0,0,0-22.04-16.8h-.7A17.776,17.776,0,0,0,55.1,10.575a17.777,17.777,0,0,0-29.07,8.838,25.862,25.862,0,1,0,14,49.07q-.346-.736-.642-1.506a27.06,27.06,0,0,1-1.714-9.747,15.246,15.246,0,0,1,2.513-8.793,16.557,16.557,0,0,1,6.589-5.431,25.186,25.186,0,0,1,2.92-1.2,30.85,30.85,0,0,1-.279-3.708,18.287,18.287,0,0,1,.385-3.574c.48-1.89,1.424-2.554,2.161-2.554a1.117,1.117,0,0,1,.882.4,1.593,1.593,0,0,1,.313,1.31h0a33.805,33.805,0,0,0-.29,3.937,21.255,21.255,0,0,0,.262,3.217,56.719,56.719,0,0,1,10.76-1.266c1.178.045,2.021.636,2.06,1.427.039.652-.519,1.394-1.854,1.606a65.042,65.042,0,0,0-6.863.491,31.384,31.384,0,0,0-8.309,2.1,13.958,13.958,0,0,0-5.936,4.461A12.562,12.562,0,0,0,40.71,57.27a21.015,21.015,0,0,0,5.182,14.565A22.917,22.917,0,0,0,68.389,77h0q1.039-.323,2.055-.753A22.917,22.917,0,0,0,82.578,64.106c.1-.245.207-.513.318-.8a10.641,10.641,0,0,1,2.351-2.994l.045-.045a15.08,15.08,0,0,1,4.322-2.66,8.539,8.539,0,0,1,2.362-4.422,8.727,8.727,0,0,1,2.044-1.517,5.456,5.456,0,0,1,2.133-.558c.731,0,1.24.268,1.368.719s-.19,1.383-1.586,2.275a5.573,5.573,0,0,0-.151,10.232c1.117.73,1.714,1.673,1.513,2.336-.134.446-.592.7-1.256.7a5.081,5.081,0,0,1-2.01-.485h0a8.65,8.65,0,0,1-4.305-5.632,6.213,6.213,0,0,0-1.189.647,10.375,10.375,0,0,0-2,1.818A18.7,18.7,0,0,0,85.42,65.3h0A25.9,25.9,0,0,1,71.65,79.061q-.921.385-1.859.7A17.759,17.759,0,0,0,74.789,85.044ZM69.981,64.557H69.9a11.154,11.154,0,0,1-5.584-7.438,8.133,8.133,0,0,0-9.8,4.723,1.843,1.843,0,0,1-1.413.8,1.274,1.274,0,0,1-1.044-.558,2.189,2.189,0,0,1-.084-2.024A11.146,11.146,0,0,1,62.04,53.74a11.435,11.435,0,0,1,2.06.19,11,11,0,0,1,2.351-6.056,1.732,1.732,0,0,1,1.189-.558,1.335,1.335,0,0,1,1.173.708,1.882,1.882,0,0,1-.134,1.918c-.073.095-.14.19-.207.29l-.039.056a2.486,2.486,0,0,0-.369.636,8.087,8.087,0,0,0,.7,8.688,8.186,8.186,0,0,0,4.171,2.883c1.044.558,1.558,1.182,1.413,1.779s-.888.954-1.859.954A5.59,5.59,0,0,1,69.981,64.557Zm-44.308-3.6h0a15.669,15.669,0,0,1-7.438-8.671,33.788,33.788,0,0,1-3.462-1.617,21.481,21.481,0,0,1-3.161-2.141h-.034a3.127,3.127,0,0,1-.866-1.511,2.111,2.111,0,0,1,.039-1.31,1.156,1.156,0,0,1,1.022-.814,1.168,1.168,0,0,1,.726.284l.056.039a35.843,35.843,0,0,0,3.412,2.23c.48.257.949.491,1.429.719,0-.385-.034-.725-.034-1.037a15.723,15.723,0,0,1,8.985-14.213,29.718,29.718,0,0,1-.3-3.742,17.558,17.558,0,0,1,.352-3.463h0a3.29,3.29,0,0,1,1.117-1.494,2.392,2.392,0,0,1,1.357-.53.894.894,0,0,1,.7.29,1.114,1.114,0,0,1,.179.926h0a31.183,31.183,0,0,0-.3,3.786,19.6,19.6,0,0,0,.262,3.072,16,16,0,0,1,3.35-.357,15.733,15.733,0,0,1,5.584,1.009c1.256.675,1.893,1.528,1.675,2.264a1.424,1.424,0,0,1-1.485.92,2.717,2.717,0,0,1-.7-.095A12.683,12.683,0,0,0,27.213,58.362a2.263,2.263,0,0,1,1.117,2.331,1.117,1.117,0,0,1-1.15.73,3.354,3.354,0,0,1-1.508-.463Zm43.61-25.9a1.865,1.865,0,0,1-.095-.5.223.223,0,0,0,0-.072h0a13.208,13.208,0,0,0-23.034-9.412.726.726,0,0,0-.251.234c-.056.095-.123.184-.19.29s-.145.178-.207.262a2.592,2.592,0,0,1-2.234,1.115.754.754,0,0,1-.609-.5,1.671,1.671,0,0,1,.235-1.243,15.5,15.5,0,0,1,2.234-2.654c-.089-.887-.145-1.734-.162-2.448a20.926,20.926,0,0,1,.29-3.825h0a2.528,2.528,0,0,1,2.178-2.141,1.067,1.067,0,0,1,1.117.691,1.325,1.325,0,0,1,.039.558v.067a35.081,35.081,0,0,0-.207,4.071v.658a16.055,16.055,0,0,1,2.669-1.115A15.734,15.734,0,0,1,67.3,23.172a25.985,25.985,0,0,1,2.368-1.232,18.126,18.126,0,0,1,3.306-1.087h0a3.354,3.354,0,0,1,1.9.446,2.17,2.17,0,0,1,1.005,1.115.835.835,0,0,1-.034.664,1.117,1.117,0,0,1-.759.513h0A30.387,30.387,0,0,0,71.5,24.872a17.715,17.715,0,0,0-2.06,1.087h0a15.919,15.919,0,0,1,2.234,8.849c-.168.9-.7,1.243-1.15,1.271h-.061A1.267,1.267,0,0,1,69.283,35.054Z" transform="translate(0.023 -0.004)" fill="#ff99af"/>
  </g>
</svg>
