<svg xmlns="http://www.w3.org/2000/svg" width="36.861" height="37.002" viewBox="0 0 36.861 37.002">
  <path id="Subtraction_44" data-name="Subtraction 44" d="M18140.932-1612a17.755,17.755,0,0,1-6.979-1.415,17.852,17.852,0,0,1-5.7-3.858,17.966,17.966,0,0,1-3.844-5.722A17.918,17.918,0,0,1,18123-1630a17.918,17.918,0,0,1,1.41-7.006,17.966,17.966,0,0,1,3.844-5.722,17.852,17.852,0,0,1,5.7-3.858,17.755,17.755,0,0,1,6.979-1.415,17.738,17.738,0,0,1,6.977,1.415,17.859,17.859,0,0,1,5.7,3.858,17.891,17.891,0,0,1,3.842,5.722,17.918,17.918,0,0,1,1.41,7.006,17.918,17.918,0,0,1-1.41,7.006,17.891,17.891,0,0,1-3.842,5.722,17.859,17.859,0,0,1-5.7,3.858A17.738,17.738,0,0,1,18140.932-1612Zm-3.2-21.46a.348.348,0,0,0-.277.132.457.457,0,0,0-.113.305v2.178a.411.411,0,0,0,.113.3.367.367,0,0,0,.277.123h1.258v8.408a.41.41,0,0,0,.119.3.355.355,0,0,0,.273.123h2.6a.379.379,0,0,0,.279-.123.421.421,0,0,0,.113-.3v-8.408h2.088a.4.4,0,0,0,.273-.1.361.361,0,0,0,.109-.278l.168-2.2a.437.437,0,0,0-.1-.31.438.438,0,0,0-.3-.15h-2.246v-.943a1.388,1.388,0,0,1,.127-.729c.084-.115.307-.173.662-.173a6.281,6.281,0,0,1,.67.041,6.092,6.092,0,0,1,.729.128.286.286,0,0,0,.09.014.4.4,0,0,0,.225-.078.476.476,0,0,0,.158-.278l.275-2.133a.387.387,0,0,0-.3-.46,7.982,7.982,0,0,0-2.338-.333,3.685,3.685,0,0,0-2.766.967,4.045,4.045,0,0,0-.922,2.884v1.094Z" transform="translate(-18122.498 1648.501)" fill="#fff" stroke="rgba(0,0,0,0)" stroke-width="1"/>
</svg>
