<svg xmlns="http://www.w3.org/2000/svg" width="36.861" height="37.002" viewBox="0 0 36.861 37.002">
  <path id="Subtraction_47" data-name="Subtraction 47" d="M18140.932-1612a17.755,17.755,0,0,1-6.979-1.415,17.852,17.852,0,0,1-5.7-3.858,17.966,17.966,0,0,1-3.844-5.722A17.918,17.918,0,0,1,18123-1630a17.918,17.918,0,0,1,1.41-7.006,17.966,17.966,0,0,1,3.844-5.722,17.852,17.852,0,0,1,5.7-3.858,17.755,17.755,0,0,1,6.979-1.415,17.738,17.738,0,0,1,6.977,1.415,17.859,17.859,0,0,1,5.7,3.858,17.891,17.891,0,0,1,3.842,5.722,17.918,17.918,0,0,1,1.41,7.006,17.918,17.918,0,0,1-1.41,7.006,17.891,17.891,0,0,1-3.842,5.722,17.859,17.859,0,0,1-5.7,3.858A17.738,17.738,0,0,1,18140.932-1612Zm-1.76-17.782,0,0c-.064.167-.117.312-.152.408a1.217,1.217,0,0,0-.064.419,1.617,1.617,0,0,0,.191.775,4.22,4.22,0,0,0,.434.652,12.826,12.826,0,0,0-1.814.191,7.011,7.011,0,0,0-1.863.574,4.319,4.319,0,0,0-1.453,1.075,2.485,2.485,0,0,0-.588,1.7,2.218,2.218,0,0,0,.432,1.4,3.517,3.517,0,0,0,1.113.916,5.338,5.338,0,0,0,1.457.52,7.585,7.585,0,0,0,1.473.159,8.131,8.131,0,0,0,1.891-.232,6.2,6.2,0,0,0,1.773-.711,4.405,4.405,0,0,0,1.322-1.24,3.085,3.085,0,0,0,.52-1.791,2.769,2.769,0,0,0-.461-1.65,5.835,5.835,0,0,0-1.008-1.1l-.285-.238-.172-.142c-.193-.162-.379-.316-.555-.459a1.088,1.088,0,0,1-.459-.839,1.057,1.057,0,0,1,.342-.8c.121-.113.25-.237.377-.358l.188-.179.188-.179a4.506,4.506,0,0,0,.76-.966,2.944,2.944,0,0,0,.348-1.527,3.813,3.813,0,0,0-.365-1.609,2.734,2.734,0,0,0-1.117-1.23h1.322l1.326-.756h-4.283a9.408,9.408,0,0,0-1.838.182,4.146,4.146,0,0,0-1.248.506,4.329,4.329,0,0,0-1.021.857,4.248,4.248,0,0,0-.7,1.121,3.34,3.34,0,0,0-.26,1.308,2.933,2.933,0,0,0,.293,1.331,3.378,3.378,0,0,0,.77,1.039,3.384,3.384,0,0,0,1.125.679,3.909,3.909,0,0,0,1.354.237h.361a1.466,1.466,0,0,0,.348-.041Zm7.338-3.851v2.2h1.111v-2.2h2.238v-1.071h-2.238v-2.215h-1.111v2.215h-2.242v1.071Zm-7.15,11.758a5.7,5.7,0,0,1-1.227-.141,4.015,4.015,0,0,1-1.193-.447,2.956,2.956,0,0,1-.906-.8,1.922,1.922,0,0,1-.365-1.185,1.861,1.861,0,0,1,.379-1.2,2.793,2.793,0,0,1,.947-.766,4.52,4.52,0,0,1,1.258-.419,7,7,0,0,1,1.285-.128c.09,0,.184,0,.283.008h.021a3.079,3.079,0,0,1,.307.032c.258.166.516.341.793.533a5.433,5.433,0,0,1,.738.606,3.025,3.025,0,0,1,.551.734,1.862,1.862,0,0,1,.223.911,1.913,1.913,0,0,1-.277,1.053,2.125,2.125,0,0,1-.725.7,3.144,3.144,0,0,1-1,.392A5.363,5.363,0,0,1,18139.359-1621.875Zm.113-8.44a1.886,1.886,0,0,1-1.162-.369,3.437,3.437,0,0,1-.861-.939,4.749,4.749,0,0,1-.537-1.226,4.619,4.619,0,0,1-.178-1.2,2.926,2.926,0,0,1,.119-.848,2.219,2.219,0,0,1,.355-.729,1.666,1.666,0,0,1,.6-.5,1.87,1.87,0,0,1,.854-.187,1.842,1.842,0,0,1,1.176.392,3.136,3.136,0,0,1,.811.994,4.9,4.9,0,0,1,.469,1.267,5.522,5.522,0,0,1,.15,1.212,2.76,2.76,0,0,1-.4,1.5A1.524,1.524,0,0,1,18139.473-1630.315Z" transform="translate(-18122.498 1648.501)" fill="#fff" stroke="rgba(0,0,0,0)" stroke-width="1"/>
</svg>
