<svg id="guitar-outline" xmlns="http://www.w3.org/2000/svg" width="134" height="134" viewBox="0 0 134 134">
  <rect id="Rectangle_3" data-name="Rectangle 3" width="134" height="134" fill="none"/>
  <g id="Group_13" data-name="Group 13" transform="translate(2.467 2.67)">
    <path id="Union_5" data-name="Union 5" d="M14.428,116.1l-1.675-1.647c-5.807-5.813-18.387-21.017-9.905-36.7a32.781,32.781,0,0,1,25.891-16.9,20.894,20.894,0,0,0,7.382-2.273A15.556,15.556,0,0,0,41.5,50.616,18.839,18.839,0,0,1,50.956,39.2a21.218,21.218,0,0,1,23.105,3.629l22.407-21.57,3.11-6.226-.9-.9a2.1,2.1,0,1,1,2.965-2.965l.491.491,2.233-2.233-.491-.491a2.083,2.083,0,1,1,2.943-2.943l.491.491,2.233-2.233-.553-.441A2.083,2.083,0,1,1,111.935.866l.491.491.8-.8a2.077,2.077,0,0,1,1-.558c.262-.056,9.755,4.875,9.755,4.875s4.93,9.531,4.874,9.771a2.077,2.077,0,0,1-.558,1l-.8.8.491.491a2.083,2.083,0,0,1-2.943,2.943l-.491-.491L122.32,21.62l.542.475a2.083,2.083,0,0,1-2.943,2.943l-.5-.469L117.183,26.8l.491.491a2.083,2.083,0,0,1-2.943,2.943l-.9-.9-6.215,3.049L86.049,54.815A21.246,21.246,0,0,1,89.678,77.92a18.839,18.839,0,0,1-11.424,9.453,15.556,15.556,0,0,0-7.973,5.383,20.894,20.894,0,0,0-2.273,7.382,32.776,32.776,0,0,1-16.9,25.858,22.937,22.937,0,0,1-11.061,2.859A39.644,39.644,0,0,1,14.428,116.1ZM52.916,42.866a14.774,14.774,0,0,0-7.538,9.269,19.666,19.666,0,0,1-6.779,9.8,22.949,22.949,0,0,1-9.045,3.01A28.873,28.873,0,0,0,6.532,79.74c-7.153,13.222,4.037,26.623,9.179,31.771l1.675,1.675c5.143,5.143,18.532,16.332,31.76,9.174a28.867,28.867,0,0,0,14.8-23.016,22.949,22.949,0,0,1,3.01-9.045,19.66,19.66,0,0,1,9.8-6.784,14.774,14.774,0,0,0,9.258-7.577A17.008,17.008,0,0,0,83.129,57.83L70.152,71.337v.625A13.239,13.239,0,1,1,56.93,58.718h.592l13.49-12.982a20.7,20.7,0,0,0-11.787-4.467,13.217,13.217,0,0,0-6.309,1.6ZM50.5,65.535A9.073,9.073,0,1,0,66,71.957a9.278,9.278,0,0,0-.067-1.117v-.061a9.023,9.023,0,0,0-7.817-7.817h-.061a9.24,9.24,0,0,0-1.083-.067,9.034,9.034,0,0,0-6.46,2.641Zm11.848-5.673a13.2,13.2,0,0,1,6.656,6.656L103.453,30.71l-5.316-5.321Zm41.47-44.016L100.7,22.089l6.081,6.086,6.242-3.121L124.688,13.4l-3.238-5.963-5.969-3.25ZM40.431,108.138l-19.7-19.7A2.083,2.083,0,0,1,23.674,85.5l19.7,19.7a2.083,2.083,0,0,1-2.943,2.943Z" transform="translate(0.005 0)" fill="#ff99af"/>
  </g>
</svg>
