<svg xmlns="http://www.w3.org/2000/svg" width="36.861" height="37.002" viewBox="0 0 36.861 37.002">
  <path id="Subtraction_45" data-name="Subtraction 45" d="M18140.932-1612a17.755,17.755,0,0,1-6.979-1.415,17.852,17.852,0,0,1-5.7-3.858,17.966,17.966,0,0,1-3.844-5.722A17.918,17.918,0,0,1,18123-1630a17.918,17.918,0,0,1,1.41-7.006,17.966,17.966,0,0,1,3.844-5.722,17.852,17.852,0,0,1,5.7-3.858,17.755,17.755,0,0,1,6.979-1.415,17.738,17.738,0,0,1,6.977,1.415,17.859,17.859,0,0,1,5.7,3.858,17.891,17.891,0,0,1,3.842,5.722,17.918,17.918,0,0,1,1.41,7.006,17.918,17.918,0,0,1-1.41,7.006,17.891,17.891,0,0,1-3.842,5.722,17.859,17.859,0,0,1-5.7,3.858A17.738,17.738,0,0,1,18140.932-1612Zm2.662-18.667a1.219,1.219,0,0,1,1.057.378,1.967,1.967,0,0,1,.26,1.117v5.783a.425.425,0,0,0,.109.273.363.363,0,0,0,.264.119h2.744a.4.4,0,0,0,.273-.119.388.388,0,0,0,.119-.273v-6.4a3.5,3.5,0,0,0-1.086-2.812,4.375,4.375,0,0,0-2.889-.911,4.708,4.708,0,0,0-1.426.219,3.156,3.156,0,0,0-1.23.729,2.764,2.764,0,0,0-.037-.465c-.027-.165-.141-.242-.355-.242h-2.588a.371.371,0,0,0-.27.114.382.382,0,0,0-.123.273v9.493a.382.382,0,0,0,.123.273.373.373,0,0,0,.27.119h2.666a.387.387,0,0,0,.273-.119.39.39,0,0,0,.113-.273v-5.145a3.924,3.924,0,0,1,.084-.843,1.672,1.672,0,0,1,.268-.675,1.323,1.323,0,0,1,.537-.447A1.868,1.868,0,0,1,18143.594-1630.666Zm-9.666-2.6a.381.381,0,0,0-.273.114.388.388,0,0,0-.119.273v9.493a.388.388,0,0,0,.119.273.387.387,0,0,0,.273.119h2.67a.387.387,0,0,0,.27-.119.4.4,0,0,0,.117-.273v-9.493a.372.372,0,0,0-.117-.273.363.363,0,0,0-.27-.114Zm1.32-4.73a1.637,1.637,0,0,0-.7.146,2,2,0,0,0-.57.392,1.929,1.929,0,0,0-.387.579,1.729,1.729,0,0,0-.15.711,1.677,1.677,0,0,0,.15.7,1.9,1.9,0,0,0,.387.574,1.863,1.863,0,0,0,.57.392,1.644,1.644,0,0,0,.7.15,1.692,1.692,0,0,0,.7-.15,1.887,1.887,0,0,0,.582-.392,1.732,1.732,0,0,0,.389-.574,1.847,1.847,0,0,0,.141-.7,1.906,1.906,0,0,0-.141-.711,1.768,1.768,0,0,0-.389-.579,2.047,2.047,0,0,0-.582-.392A1.684,1.684,0,0,0,18135.248-1638Z" transform="translate(-18122.498 1648.501)" fill="#fff" stroke="rgba(0,0,0,0)" stroke-width="1"/>
</svg>
