<svg xmlns="http://www.w3.org/2000/svg" width="36.861" height="37.002" viewBox="0 0 36.861 37.002">
  <path id="Subtraction_46" data-name="Subtraction 46" d="M18140.932-1612a17.755,17.755,0,0,1-6.979-1.415,17.852,17.852,0,0,1-5.7-3.858,17.966,17.966,0,0,1-3.844-5.722A17.918,17.918,0,0,1,18123-1630a17.918,17.918,0,0,1,1.41-7.006,17.966,17.966,0,0,1,3.844-5.722,17.852,17.852,0,0,1,5.7-3.858,17.755,17.755,0,0,1,6.979-1.415,17.738,17.738,0,0,1,6.977,1.415,17.859,17.859,0,0,1,5.7,3.858,17.891,17.891,0,0,1,3.842,5.722,17.918,17.918,0,0,1,1.41,7.006,17.918,17.918,0,0,1-1.41,7.006,17.891,17.891,0,0,1-3.842,5.722,17.859,17.859,0,0,1-5.7,3.858A17.738,17.738,0,0,1,18140.932-1612Zm-7.939-15.8a.412.412,0,0,0-.3.114.392.392,0,0,0-.123.292.472.472,0,0,0,.074.219,7.486,7.486,0,0,0,2.947,2.361,9.085,9.085,0,0,0,3.77.807,9.851,9.851,0,0,0,2.5-.328,9.76,9.76,0,0,0,2.342-.943,7.469,7.469,0,0,0,1.91-1.54,5.935,5.935,0,0,0,1.207-2.119,4.663,4.663,0,0,0,.49-.083l.039-.008a3.8,3.8,0,0,0,.66-.223,3.032,3.032,0,0,0,.557-.324.526.526,0,0,0,.24-.428.349.349,0,0,0-.172-.333.538.538,0,0,0-.277-.077.62.62,0,0,0-.1.009,3.788,3.788,0,0,0,.3-.337.689.689,0,0,0,.178-.419.4.4,0,0,0-.123-.282.4.4,0,0,0-.287-.123,1.737,1.737,0,0,0-.516.141,2.2,2.2,0,0,1-.8.141.637.637,0,0,1-.205-.018,4.314,4.314,0,0,0-.826-1.568,3.713,3.713,0,0,0-1.443-1.075.568.568,0,0,0,.24-.456.472.472,0,0,0-.227-.437,1.014,1.014,0,0,0-.516-.137.425.425,0,0,0-.393-.228,1.541,1.541,0,0,0-.383.059c-.125.037-.248.076-.377.119a.382.382,0,0,0-.246-.068.368.368,0,0,0-.219.055,3.2,3.2,0,0,0-.807.638,6.7,6.7,0,0,0-.662.825,9.094,9.094,0,0,0-.547.921c-.148.288-.289.588-.428.916-.137-.112-.277-.221-.4-.314a3.972,3.972,0,0,0-.434-.274l-.154-.072-.217-.1-.518-.239c-.471-.217-.9-.408-1.33-.583-.5-.206-.92-.377-1.295-.524a3.174,3.174,0,0,0-.766-.232.351.351,0,0,0-.338.16.74.74,0,0,0-.086.36,1.856,1.856,0,0,0,.188.82,2.3,2.3,0,0,0,.506.7.365.365,0,0,0-.3.369,1.421,1.421,0,0,0,.314.848,2.424,2.424,0,0,0,.691.638.942.942,0,0,0-.227.191.355.355,0,0,0-.092.246.665.665,0,0,0,.15.4,1.877,1.877,0,0,0,.369.374,3.516,3.516,0,0,0,.465.292,2.355,2.355,0,0,0,.406.173.709.709,0,0,0-.074.342.786.786,0,0,0,.17.5,1.271,1.271,0,0,0,.428.365,3.306,3.306,0,0,1-.971.41,4.294,4.294,0,0,1-1.066.132h-.021a3.87,3.87,0,0,1-2.59-.934A.5.5,0,0,0,18132.992-1627.795Z" transform="translate(-18122.5 1648.501)" fill="#fff" stroke="rgba(0,0,0,0)" stroke-width="1"/>
</svg>
